<svg width="124" height="121" viewBox="0 0 124 121" fill="none" xmlns="http://www.w3.org/2000/svg">
<path d="M67.4818 2.26319L118.518 53.3914V53.3966C121.535 56.4194 124 62.3821 124 66.6523V113.236C124 117.506 120.512 121 116.25 121L7.75 120.995C3.4875 120.995 0 117.501 0 113.231V66.6471C0 62.3769 2.46966 56.409 5.48183 53.3914L56.5233 2.26319C59.5355 -0.754398 64.4697 -0.754398 67.4818 2.26319Z" fill="#18BCF2"/>
<path d="M7.82828 64.3076C7.82828 62.5751 9.23022 61.1706 10.9596 61.1706H53.2323C54.9617 61.1706 56.3636 62.5751 56.3636 64.3076C56.3636 66.04 54.9617 67.4445 53.2323 67.4445H10.9596C9.23022 67.4445 7.82828 66.04 7.82828 64.3076Z" fill="url(#paint0_linear_4_58)"/>
<path d="M7.82828 78.4239C7.82828 76.6914 9.23022 75.2869 10.9596 75.2869H112.727C114.457 75.2869 115.859 76.6914 115.859 78.4239C115.859 80.1563 114.457 81.5608 112.727 81.5608H10.9596C9.23022 81.5608 7.82828 80.1563 7.82828 78.4239Z" fill="white"/>
<path d="M7.82828 92.5401C7.82828 90.8077 9.23022 89.4032 10.9596 89.4032H82.9798C84.7092 89.4032 86.1111 90.8077 86.1111 92.5401C86.1111 94.2726 84.7092 95.6771 82.9798 95.6771H10.9596C9.23022 95.6771 7.82828 94.2726 7.82828 92.5401Z" fill="white"/>
<path d="M7.82828 106.656C7.82828 104.924 9.23022 103.519 10.9596 103.519H112.727C114.457 103.519 115.859 104.924 115.859 106.656C115.859 108.389 114.457 109.793 112.727 109.793H10.9596C9.23022 109.793 7.82828 108.389 7.82828 106.656Z" fill="white"/>
<defs>
<linearGradient id="paint0_linear_4_58" x1="0" y1="60.5" x2="270" y2="60.5" gradientUnits="userSpaceOnUse">
<stop stop-color="#0D6F8F"/>
<stop offset="1" stop-color="#042029"/>
</linearGradient>
</defs>
</svg>
